<?xml version="1.0" encoding="UTF-8"?>
<svg width="24px" height="24px" viewBox="0 0 24 24" version="1.1" xmlns="http://www.w3.org/2000/svg" xmlns:xlink="http://www.w3.org/1999/xlink">
    <g id="icons" stroke="none" stroke-width="1" fill="none" fill-rule="evenodd">
        <g id="icons---export" transform="translate(-60.000000, -58.000000)">
            <g id="row-1" transform="translate(60.000000, 58.000000)" fill="#444444" fill-rule="nonzero">
                <g id="icon---1">
                    <path d="M3.99388373,20 C3.4449769,20 3,19.5522847 3,19 C3,18.4477153 3.4449769,18 3.99388373,18 L20.0061163,18 C20.5550231,18 21,18.4477153 21,19 C21,19.5522847 20.5550231,20 20.0061163,20 L3.99388373,20 Z M3.99388373,13 C3.4449769,13 3,12.5522847 3,12 C3,11.4477153 3.4449769,11 3.99388373,11 L20.0061163,11 C20.5550231,11 21,11.4477153 21,12 C21,12.5522847 20.5550231,13 20.0061163,13 L3.99388373,13 Z M3.99388373,6 C3.4449769,6 3,5.55228475 3,5 C3,4.44771525 3.4449769,4 3.99388373,4 L20.0061163,4 C20.5550231,4 21,4.44771525 21,5 C21,5.55228475 20.5550231,6 20.0061163,6 L3.99388373,6 Z" id="menu"></path>
                </g>
            </g>
            <g id="slices" transform="translate(60.000000, 58.000000)"></g>
        </g>
    </g>
</svg>
